<svg width="135" height="35" viewBox="0 0 135 35" fill="none" xmlns="http://www.w3.org/2000/svg">
<path d="M13.9571 13.1091L1.79774 19.381L23.5849 13.0291C27.9477 11.1754 31.2496 9.79165 31.2496 9.79053C29.1978 10.1601 21.2176 11.7028 13.9571 13.1091Z" fill="url(#paint0_linear_57_42)"/>
<path d="M3.47032 26.4792C3.47032 26.4792 4.151 29.3695 4.69662 31.6908C4.70163 31.69 4.70674 31.69 4.71175 31.6908C4.9206 32.4013 5.37043 33.0081 5.97712 33.3978C6.58382 33.7875 7.30585 33.9334 8.00819 33.8082C8.01575 33.8217 35.7702 26.7801 35.7702 26.7801L34.3483 20.7256L3.47032 26.4792Z" fill="url(#paint1_radial_57_42)"/>
<path d="M22.0712 30.248L21.9804 30.3043L21.7643 34.9999C21.7643 34.9999 34.6886 27.3486 35.702 26.792C34.9663 26.979 28.5463 28.6073 22.0712 30.248Z" fill="url(#paint2_linear_57_42)"/>
<path d="M1.79774 19.3817L3.26067 25.5996C3.26067 25.5996 33.673 17.8683 33.6892 17.9371C33.7054 18.0058 31.9605 10.5845 31.9605 10.5845L1.79774 19.3817Z" fill="url(#paint3_linear_57_42)"/>
<path d="M3.46814 26.4803L25.7609 22.3245C30.247 19.8319 33.6838 17.9298 33.6892 17.94C33.6774 17.8881 18.4463 21.7442 9.54132 24.0023L3.46814 26.4803Z" fill="url(#paint4_linear_57_42)"/>
<path opacity="0.4" d="M21.8951 30.2947C29.0261 28.4827 35.768 26.7756 35.768 26.7756L34.3483 20.7256L27.7414 21.9561C26.3974 25.5349 24.3499 28.4332 21.8951 30.2947Z" fill="#37C4EE"/>
<path d="M28.5971 19.1934C31.632 18.4328 33.686 17.9257 33.6892 17.9449C33.7076 18.0204 31.9605 10.5923 31.9605 10.5923L29.4269 11.3304C29.7899 13.4871 29.6505 16.5792 28.5971 19.1934Z" fill="#F9C02E"/>
<path d="M30.4403 4.18282C30.0233 2.67174 28.8013 1.60913 27.091 2.04183L21.4586 3.48869C21.6462 3.87328 21.8017 4.27404 21.9232 4.68652C22.0271 4.79996 22.1015 4.93921 22.1393 5.09105C22.1687 5.21498 22.1745 5.34375 22.1562 5.47C22.1379 5.59625 22.096 5.7175 22.0328 5.82685C21.9696 5.93619 21.8863 6.03149 21.7878 6.10728C21.6893 6.18308 21.5774 6.23789 21.4586 6.26859C21.3398 6.2993 21.2163 6.3053 21.0953 6.28624C20.9742 6.26718 20.858 6.22344 20.7531 6.15752C20.6483 6.0916 20.5569 6.00479 20.4842 5.90204C20.4116 5.79929 20.359 5.68262 20.3296 5.55869C20.2859 5.37116 20.2998 5.17405 20.3695 4.99527C20.4192 5.14852 20.4646 5.30402 20.5024 5.46403L21.7071 5.15303C21.2521 3.39517 20.1555 1.89282 18.652 0.967378C17.1485 0.0419347 15.3575 -0.233113 13.662 0.201076C11.9665 0.635265 10.5013 1.74421 9.57978 3.29068C8.65825 4.83714 8.35359 6.69833 8.73098 8.47607L9.75524 8.21351C9.75524 8.22816 9.75524 8.24394 9.76496 8.25859H9.75632C9.79796 8.42701 9.79551 8.60401 9.74925 8.77111C9.70298 8.93822 9.61459 9.08933 9.49328 9.20869C9.37198 9.32805 9.2222 9.41129 9.05955 9.44975C8.8969 9.4882 8.72734 9.48045 8.56854 9.42731C8.40974 9.37417 8.26752 9.27758 8.15669 9.14761C8.04586 9.01764 7.97048 8.85905 7.9384 8.68836C7.90633 8.51767 7.91874 8.34114 7.97434 8.17716C8.02993 8.01317 8.12668 7.86774 8.2545 7.75602C8.22154 7.46504 8.20459 7.17234 8.20373 6.87934L2.21482 8.41184C2.21482 8.41184 2.21482 8.41184 2.21482 8.4186H2.20726C1.47057 8.60759 0.834224 9.09014 0.434705 9.76276C0.0351852 10.4354 -0.0956939 11.2445 0.0701372 12.0166H0.0636548L0.918287 15.6484C0.918287 15.6484 31.7358 9.63558 31.7552 9.70883L30.4533 4.17719L30.4403 4.18282ZM13.9809 1.34207C15.0965 1.0569 16.2703 1.15056 17.3313 1.60942C18.3924 2.06828 19.2853 2.86837 19.8801 3.89322L9.88382 6.45114C9.95608 5.25552 10.3925 4.11519 11.1294 3.19623C11.8663 2.27726 12.8653 1.62767 13.9809 1.34207V1.34207Z" fill="url(#paint5_radial_57_42)"/>
<path d="M52.3221 9.395C52.826 9.18482 53.4306 9.07972 54.2367 9.07972C55.0428 9.07972 55.6475 9.18482 56.1513 9.5001C56.6551 9.81538 57.0582 10.1307 57.2597 10.6561C57.562 11.1816 57.6628 11.7071 57.6628 12.3376H63.5073C63.5073 10.7612 63.1043 9.395 62.2981 8.13387C61.492 6.97783 60.4843 6.03198 59.0736 5.40142C57.6628 4.77085 56.1513 4.45557 54.3375 4.45557C53.0275 4.45557 51.7175 4.66576 50.6091 4.98104C49.5006 5.29632 48.493 5.82179 47.586 6.45236C46.7799 6.97783 46.1753 7.71349 45.6715 8.65934C45.1676 9.5001 44.9661 10.4459 44.9661 11.602C44.9661 12.758 45.1676 13.7039 45.6715 14.6497C46.1753 15.4905 46.7799 16.2261 47.4853 16.8567C48.2914 17.4873 49.1983 18.0127 50.206 18.4331C51.2137 18.8535 52.2214 19.2739 53.3298 19.6943C54.2367 20.0095 54.9421 20.3248 55.5467 20.6401C56.1513 20.9554 56.5544 21.1656 56.8567 21.4809C57.159 21.7961 57.3605 22.1114 57.4613 22.4267C57.562 22.742 57.6628 23.0573 57.6628 23.4777C57.6628 23.898 57.562 24.3184 57.3605 24.7388C57.159 25.1592 56.8567 25.3694 56.3528 25.6846C55.849 25.8948 55.2444 25.9999 54.539 25.9999C53.8336 25.9999 53.229 25.8948 52.7252 25.7897C52.2214 25.6846 51.7175 25.4745 51.4152 25.1592C51.0121 24.8439 50.8106 24.4235 50.6091 23.898C50.4075 23.3726 50.3068 22.742 50.3068 22.0063H44.2607C44.2607 23.4777 44.563 24.8439 45.1676 25.8948C45.7722 26.9458 46.5784 27.8916 47.4853 28.5222C48.493 29.2579 49.6014 29.6782 50.8106 30.0986C52.0198 30.4139 53.229 30.6241 54.539 30.6241C55.9498 30.6241 57.159 30.519 58.2674 30.2037C59.3759 29.8884 60.2828 29.468 61.0889 28.8375C61.895 28.2069 62.4997 27.4712 62.9027 26.6305C63.3058 25.7897 63.5073 24.7388 63.5073 23.5828C63.5073 22.5318 63.3058 21.586 63.0035 20.7452C62.6004 19.9044 62.0966 19.1688 61.3912 18.4331C60.6858 17.8026 59.8797 17.172 58.872 16.6465C57.8643 16.121 56.7559 15.5956 55.4459 15.1752C54.7405 14.965 54.1359 14.7548 53.5313 14.4395C53.0275 14.2293 52.5237 13.9141 52.1206 13.7039C51.6168 13.2835 51.3144 12.9682 51.1129 12.6529C50.9114 12.3376 50.8106 12.0224 50.8106 11.602C50.8106 11.1816 50.9114 10.7612 51.2137 10.3409C51.4152 9.92048 51.8183 9.60519 52.3221 9.395Z" fill="white"/>
<path d="M80.7386 12.6526C80.2348 12.022 79.5294 11.6017 78.824 11.3915C78.1187 11.0762 77.3125 10.9711 76.4056 10.9711C75.3979 10.9711 74.491 11.1813 73.6849 11.6017C72.9795 12.022 72.2741 12.5475 71.7703 13.2832V3.4043H66.1273V30.2034H71.7703V16.6462C71.9718 16.3309 72.2741 16.0156 72.5765 15.8054C72.9795 15.5952 73.4834 15.4902 74.1887 15.4902C74.6926 15.4902 75.1964 15.5952 75.5995 15.7003C76.0026 15.9105 76.3049 16.1207 76.5064 16.5411C76.7079 16.9615 76.8087 17.592 76.8087 18.3277V30.2034H82.4517V18.4328C82.4517 17.0666 82.3509 15.9105 82.0486 14.9647C81.6455 14.0188 81.2425 13.2832 80.7386 12.6526Z" fill="white"/>
<path d="M100.086 13.7041C99.3806 12.8634 98.4737 12.1277 97.3653 11.7073C96.2568 11.1819 95.0476 10.9717 93.6369 10.9717C92.2261 10.9717 91.0169 11.1819 89.9085 11.7073C88.8 12.2328 87.8931 12.8634 87.1877 13.7041C86.4824 14.5449 85.8777 15.5958 85.4747 16.7519C85.0716 17.9079 84.8701 19.169 84.8701 20.5353V20.8506C84.8701 22.2168 85.0716 23.4779 85.4747 24.634C85.8777 25.79 86.3816 26.8409 87.1877 27.6817C87.8931 28.5225 88.8 29.2581 89.9085 29.6785C91.0169 30.204 92.2261 30.4141 93.6369 30.4141C95.0476 30.4141 96.2568 30.204 97.3653 29.6785C98.4737 29.153 99.3806 28.5225 100.086 27.6817C100.791 26.8409 101.396 25.79 101.799 24.634C102.202 23.4779 102.404 22.2168 102.404 20.8506V20.5353C102.404 19.169 102.202 17.9079 101.799 16.7519C101.295 15.5958 100.791 14.5449 100.086 13.7041ZM96.6599 20.9557C96.6599 21.6913 96.6599 22.3219 96.5591 22.9524C96.4584 23.583 96.2568 24.1085 96.0553 24.5289C95.8537 24.9492 95.5514 25.3696 95.1484 25.5798C94.6445 25.8951 94.1407 26.0002 93.5361 26.0002C92.9315 26.0002 92.4276 25.8951 92.0246 25.5798C91.6215 25.3696 91.3192 24.9492 91.1177 24.5289C90.9161 24.1085 90.7146 23.4779 90.6138 22.9524C90.5131 22.3219 90.5131 21.6913 90.5131 20.9557V20.6404C90.5131 19.9047 90.5131 19.2741 90.6138 18.7487C90.7146 18.1181 90.9161 17.5926 91.1177 17.1723C91.3192 16.6468 91.6215 16.3315 92.0246 16.0162C92.4276 15.7009 92.9315 15.5958 93.5361 15.5958C94.1407 15.5958 94.6445 15.7009 95.0476 16.0162C95.4507 16.3315 95.753 16.6468 95.9545 17.1723C96.1561 17.5926 96.3576 18.2232 96.4584 18.7487C96.5591 19.3792 96.5591 20.0098 96.5591 20.6404V20.9557H96.6599Z" fill="white"/>
<path d="M111.674 9.81577C111.674 9.2903 111.775 8.97502 111.977 8.65973C112.178 8.34445 112.48 8.02917 112.884 7.92407C113.287 7.71388 113.69 7.71388 114.294 7.71388C114.597 7.71388 114.899 7.71388 115.1 7.71388C115.302 7.71388 115.503 7.81898 115.705 7.81898V3.51011C115.302 3.40501 114.899 3.29992 114.395 3.29992C113.992 3.19482 113.488 3.19482 112.984 3.19482C111.574 3.19482 110.364 3.40501 109.256 3.93049C108.248 4.45596 107.442 5.19162 106.837 6.24256C106.233 7.29351 106.031 8.44954 106.031 9.92087V11.2871H103.411V15.3858H106.031V30.2041H111.674V15.3858H115.201V11.2871H111.674V9.81577Z" fill="white"/>
<path d="M117.986 10.086C117.986 9.21239 118.28 8.50263 118.866 7.95666C119.473 7.41068 120.196 7.1377 121.033 7.1377C121.892 7.1377 122.614 7.41068 123.2 7.95666C123.808 8.50263 124.111 9.21239 124.111 10.086C124.111 10.9377 123.808 11.6365 123.2 12.1825C122.614 12.7285 121.892 13.0015 121.033 13.0015C120.196 13.0015 119.473 12.7285 118.866 12.1825C118.28 11.6365 117.986 10.9377 117.986 10.086ZM118.426 15.5566H123.64V30.6255H118.426V15.5566Z" fill="white" stroke="white" stroke-width="0.5"/>
<path d="M134.093 25.3696C133.488 24.8441 132.783 24.5288 131.876 24.5288C130.969 24.5288 130.264 24.8441 129.659 25.3696C129.055 25.895 128.752 26.6307 128.752 27.4715C128.752 28.3122 129.055 29.0479 129.659 29.5733C130.264 30.0988 130.969 30.4141 131.876 30.4141C132.783 30.4141 133.589 30.0988 134.093 29.5733C134.698 29.0479 135 28.3122 135 27.4715C135 26.6307 134.698 25.895 134.093 25.3696Z" fill="white"/>
<defs>
<linearGradient id="paint0_linear_57_42" x1="17.394" y1="19.3723" x2="15.1925" y2="8.20809" gradientUnits="userSpaceOnUse">
<stop offset="0.46" stop-color="#F1634C"/>
<stop offset="0.49" stop-color="#E8574E"/>
<stop offset="0.55" stop-color="#D03652"/>
<stop offset="0.59" stop-color="#BE1E55"/>
</linearGradient>
<radialGradient id="paint1_radial_57_42" cx="0" cy="0" r="1" gradientUnits="userSpaceOnUse" gradientTransform="translate(19.6215 26.6192) rotate(-14.3581) scale(11.4487 11.8811)">
<stop stop-color="#20C1E9"/>
<stop offset="1" stop-color="#0CAEC7"/>
</radialGradient>
<linearGradient id="paint2_linear_57_42" x1="28.9362" y1="31.7518" x2="27.8394" y2="27.4669" gradientUnits="userSpaceOnUse">
<stop offset="0.3" stop-color="#018EA2"/>
<stop offset="0.41" stop-color="#018A9E"/>
<stop offset="0.53" stop-color="#038091"/>
<stop offset="0.63" stop-color="#047280"/>
</linearGradient>
<linearGradient id="paint3_linear_57_42" x1="28.4857" y1="15.3688" x2="5.75339" y2="20.7185" gradientUnits="userSpaceOnUse">
<stop stop-color="#FDD309"/>
<stop offset="1" stop-color="#F79420"/>
</linearGradient>
<linearGradient id="paint4_linear_57_42" x1="19.1747" y1="25.014" x2="18.3722" y2="21.5211" gradientUnits="userSpaceOnUse">
<stop offset="0.33" stop-color="#FFDD0F"/>
<stop offset="0.45" stop-color="#FDD910"/>
<stop offset="0.56" stop-color="#F8CC13"/>
<stop offset="0.69" stop-color="#EFB618"/>
<stop offset="0.81" stop-color="#E3991F"/>
<stop offset="0.94" stop-color="#D37328"/>
</linearGradient>
<radialGradient id="paint5_radial_57_42" cx="0" cy="0" r="1" gradientUnits="userSpaceOnUse" gradientTransform="translate(14.9661 6.84725) rotate(-14.3581) scale(12.0564 12.5117)">
<stop stop-color="#ED3B87"/>
<stop offset="1" stop-color="#DB377D"/>
</radialGradient>
</defs>
</svg>
